<svg width="17" height="17" viewBox="0 0 17 17" fill="none" xmlns="http://www.w3.org/2000/svg">
<path d="M9.61764 15.7841C9.61764 16.3788 9.1418 16.8398 8.56188 16.8398C7.96708 16.8398 7.52099 16.3788 7.52099 15.7841V9.71715H2.01914C1.42434 9.71715 0.963379 9.25618 0.963379 8.67626C0.963379 8.08147 1.42434 7.60563 2.01914 7.60563H7.52099V1.8956C7.52099 1.30081 7.96708 0.839844 8.56188 0.839844C9.1418 0.839844 9.61764 1.30081 9.61764 1.8956V7.60563H15.1492C15.7589 7.60563 16.2199 8.08147 16.2199 8.67626C16.2199 9.25618 15.7589 9.71715 15.1492 9.71715H9.61764V15.7841Z" fill="#0751D8"/>
</svg>
